<svg width="17" height="17" viewBox="0 0 17 17" fill="none" xmlns="http://www.w3.org/2000/svg">
<path d="M8.50083 0.666664C3.89665 0.666664 0.16748 4.39583 0.16748 9C0.16748 12.6875 2.5529 15.8021 5.8654 16.9062C6.28206 16.9792 6.43831 16.7292 6.43831 16.5104C6.43831 16.3125 6.4279 15.6562 6.4279 14.9583C4.33415 15.3437 3.79248 14.4479 3.62581 13.9792C3.53206 13.7396 3.12581 13 2.77165 12.8021C2.47998 12.6458 2.06331 12.2604 2.76123 12.25C3.41748 12.2396 3.88623 12.8542 4.04248 13.1042C4.79248 14.3646 5.9904 14.0104 6.46956 13.7917C6.54248 13.25 6.76123 12.8854 7.00083 12.6771C5.14665 12.4687 3.20915 11.75 3.20915 8.5625C3.20915 7.65625 3.53206 6.90625 4.06331 6.32291C3.97998 6.11458 3.68831 5.26041 4.14665 4.11458C4.14665 4.11458 4.84456 3.89583 6.43831 4.96875C7.105 4.78125 7.81333 4.6875 8.52166 4.6875C9.23 4.6875 9.93833 4.78125 10.605 4.96875C12.1987 3.88541 12.8967 4.11458 12.8967 4.11458C13.355 5.26041 13.0633 6.11458 12.98 6.32291C13.5112 6.90625 13.8342 7.64583 13.8342 8.5625C13.8342 11.7604 11.8862 12.4687 10.0321 12.6771C10.3342 12.9375 10.5946 13.4375 10.5946 14.2187C10.5946 15.3333 10.5842 16.2292 10.5842 16.5104C10.5842 16.7292 10.7404 16.9896 11.1571 16.9062C14.5492 15.7611 16.8332 12.5802 16.8342 9C16.8342 4.39583 13.105 0.666664 8.50083 0.666664Z" fill="#4338CA"/>
</svg>
