<svg width="17" height="18" viewBox="0 0 17 18" fill="none" xmlns="http://www.w3.org/2000/svg">
<path d="M9.35675 0.66748C10.2946 0.66903 10.7698 0.673989 11.1805 0.686214L11.3422 0.691506C11.5291 0.698147 11.7134 0.706481 11.9357 0.716897C12.8224 0.757864 13.4273 0.898147 13.9586 1.1044C14.5078 1.3162 14.9717 1.60231 15.4349 2.06551C15.8974 2.5287 16.1836 2.99398 16.3961 3.5419C16.6016 4.07245 16.7419 4.67801 16.7836 5.56481C16.7935 5.78703 16.8015 5.97136 16.8081 6.15824L16.8133 6.31997C16.8255 6.7306 16.8311 7.20591 16.8328 8.14375L16.8335 8.76516C16.8336 8.84108 16.8336 8.91942 16.8336 9.00025L16.8335 9.23533L16.833 9.85675C16.8314 10.7946 16.8265 11.2698 16.8142 11.6805L16.8089 11.8422C16.8023 12.0291 16.794 12.2134 16.7836 12.4357C16.7426 13.3224 16.6016 13.9273 16.3961 14.4586C16.1842 15.0078 15.8974 15.4717 15.4349 15.9349C14.9717 16.3974 14.5057 16.6836 13.9586 16.8961C13.4273 17.1016 12.8224 17.2419 11.9357 17.2836C11.7134 17.2935 11.5291 17.3015 11.3422 17.3081L11.1805 17.3133C10.7698 17.3255 10.2946 17.3311 9.35675 17.3328L8.73533 17.3335C8.65941 17.3336 8.58108 17.3336 8.50025 17.3336L8.26516 17.3335L7.64375 17.333C6.70591 17.3314 6.2306 17.3265 5.81997 17.3142L5.65824 17.3089C5.47136 17.3023 5.28703 17.294 5.06481 17.2836C4.17801 17.2426 3.57384 17.1016 3.0419 16.8961C2.49328 16.6842 2.0287 16.3974 1.56551 15.9349C1.10231 15.4717 0.816897 15.0057 0.604397 14.4586C0.398147 13.9273 0.258564 13.3224 0.216897 12.4357C0.206997 12.2134 0.198922 12.0291 0.192381 11.8422L0.187139 11.6805C0.174947 11.2698 0.169389 10.7946 0.167589 9.85675L0.16748 8.14375C0.16903 7.20591 0.173989 6.7306 0.186214 6.31997L0.191506 6.15824C0.198147 5.97136 0.206481 5.78703 0.216897 5.56481C0.257864 4.67731 0.398147 4.07315 0.604397 3.5419C0.816197 2.99328 1.10231 2.5287 1.56551 2.06551C2.0287 1.60231 2.49398 1.3169 3.0419 1.1044C3.57315 0.898147 4.17731 0.758564 5.06481 0.716897C5.28703 0.706997 5.47136 0.698922 5.65824 0.692381L5.81997 0.687139C6.2306 0.674947 6.70591 0.669389 7.64375 0.667589L9.35675 0.66748ZM8.50025 4.83356C6.19781 4.83356 4.33356 6.69984 4.33356 9.00025C4.33356 11.3027 6.19984 13.1669 8.50025 13.1669C10.8027 13.1669 12.6669 11.3006 12.6669 9.00025C12.6669 6.69781 10.8006 4.83356 8.50025 4.83356ZM8.50025 6.50023C9.881 6.50023 11.0002 7.61908 11.0002 9.00025C11.0002 10.381 9.88133 11.5002 8.50025 11.5002C7.1195 11.5002 6.00023 10.3813 6.00023 9.00025C6.00023 7.6195 7.11908 6.50023 8.50025 6.50023ZM12.8752 3.58356C12.3008 3.58356 11.8336 4.05015 11.8336 4.62452C11.8336 5.19889 12.3002 5.6662 12.8752 5.6662C13.4496 5.6662 13.9169 5.19961 13.9169 4.62452C13.9169 4.05015 13.4488 3.58284 12.8752 3.58356Z" fill="#4338CA"/>
</svg>
