<svg width="15" height="16" viewBox="0 0 15 16" fill="none" xmlns="http://www.w3.org/2000/svg">
<path d="M12.7801 13.2825H10.5588V9.80183C10.5588 8.97183 10.542 7.90375 9.40133 7.90375C8.24325 7.90375 8.06633 8.80692 8.06633 9.74058V13.2825H5.84508V6.125H7.97883V7.10058H8.00758C8.30575 6.53808 9.03075 5.94437 10.1138 5.94437C12.3645 5.94437 12.7807 7.42567 12.7807 9.35375L12.7801 13.2825ZM3.33636 5.14562C2.62136 5.14562 2.04698 4.56687 2.04698 3.855C2.04698 3.14375 2.62198 2.56563 3.33636 2.56563C4.04886 2.56563 4.62636 3.14375 4.62636 3.855C4.62636 4.56687 4.04823 5.14562 3.33636 5.14562ZM4.45011 13.2825H2.22261V6.125H4.45011V13.2825ZM13.8913 0.5H1.10761C0.495732 0.5 0.000732422 0.98375 0.000732422 1.58063V14.4194C0.000732422 15.0168 0.495732 15.5 1.10761 15.5H13.8895C14.5007 15.5 15.0007 15.0168 15.0007 14.4194V1.58063C15.0007 0.98375 14.5007 0.5 13.8895 0.5H13.8913Z" fill="#4338CA"/>
</svg>
